# xmcd CD database file
#
# Track frame offsets:
#	150
#	16731
#	33847
#	50428
#
# Disc length: 897 seconds
#
# Revision: 0
# Processed by: cddbd v1.5.1PL2 Copyright (c) Steve Scherf et al.
# Submitted via: CDex 1.60beta1
#
DISCID=22037f04
DTITLE=姫子とナーナ(新谷良子 and 宮崎羽衣) - 百発百中とらぶるん♪
DYEAR=2006
DGENRE=JPop
TTITLE0=百発百中とらぶるん♪
TTITLE1=カルーアミルクのお風呂に入りたい
TTITLE2=百発百中とらぶるん♪ (off vocal)
TTITLE3=カルーアミルクのお風呂に入りたい (off vocal)
EXTD=YEAR: 2006
EXTT0=
EXTT1=
EXTT2=
EXTT3=
PLAYORDER=
